<?xml version="1.0" standalone="no"?>
<!DOCTYPE svg PUBLIC "-//W3C//DTD SVG 20010904//EN"
 "http://www.w3.org/TR/2001/REC-SVG-20010904/DTD/svg10.dtd">
<svg version="1.0" xmlns="http://www.w3.org/2000/svg"
 width="700.000000pt" height="700.000000pt" viewBox="0 0 700.000000 700.000000"
 preserveAspectRatio="xMidYMid meet">
<metadata>
Created by potrace 1.14, written by Peter Selinger 2001-2017
</metadata>
<g transform="translate(0.000000,700.000000) scale(0.100000,-0.100000)"
fill="#000000" stroke="none">
<path d="M2631 6120 c-4 -3 -6 -129 -6 -280 1 -151 0 -280 -2 -286 -3 -8 -115
-11 -386 -12 -210 0 -396 -3 -413 -6 -94 -17 -181 -64 -246 -134 -70 -75 -65
-63 -235 -552 -47 -135 -91 -263 -98 -285 -8 -22 -47 -137 -89 -255 -114 -328
-221 -636 -253 -730 l-29 -85 1 -1180 c1 -649 5 -1196 9 -1215 12 -52 34 -90
75 -133 75 -80 131 -94 366 -92 115 1 195 6 222 15 89 27 183 131 197 215 2
17 5 103 5 191 l1 161 1749 0 1749 0 4 -186 3 -186 31 -55 c35 -63 109 -124
169 -142 25 -7 116 -12 240 -12 193 0 202 1 255 26 69 31 115 78 148 148 l26
55 2 1190 1 1190 -29 90 c-17 50 -63 185 -103 300 -40 116 -94 271 -120 345
-51 146 -118 340 -170 490 -19 52 -70 200 -114 328 -44 129 -92 255 -107 282
-26 49 -119 150 -137 150 -6 0 -18 6 -26 13 -20 17 -94 44 -141 53 -19 3 -207
6 -417 6 -282 0 -383 3 -384 11 -1 7 -2 138 -3 292 l-1 280 -869 0 c-477 0
-871 -2 -875 -5z m2690 -1665 c119 -358 215 -653 212 -657 -2 -5 -920 -8
-2040 -8 -1621 0 -2034 3 -2031 13 3 6 98 293 213 637 114 344 211 634 215
645 8 20 17 20 1611 20 l1603 -1 217 -649z m-3278 -1273 c217 -77 336 -317
268 -541 -23 -75 -86 -170 -142 -212 -247 -188 -594 -81 -691 212 -8 24 -15
78 -17 119 -10 304 293 523 582 422z m3141 17 c199 -36 348 -208 355 -410 13
-374 -408 -588 -708 -360 -55 41 -119 136 -141 209 -76 245 69 501 315 557 68
16 109 17 179 4z"/>
</g>
</svg>
